<svg xmlns="http://www.w3.org/2000/svg" viewBox="0 0 32 32">
  <path d="M0,0 l-0.725,-0.66 C-3.3,-2.995 -5,-4.535 -5,-6.425 C-5,-7.965 -3.79,-9.175 -2.25,-9.175 c0.87,0 1.705,0.405 2.25,1.045 C0.545,-8.77 1.38,-9.175 2.25,-9.175 C3.79,-9.175 5,-7.965 5,-6.425 c0,1.89 -1.7,3.43 -4.275,5.77 L0,0 Z" fill="#59d18f" stroke="#111111" stroke-width="2" stroke-linejoin="round" stroke-linecap="round" transform="translate(16,16) rotate(0)"/>
  <path d="M0,0 l-0.725,-0.66 C-3.3,-2.995 -5,-4.535 -5,-6.425 C-5,-7.965 -3.79,-9.175 -2.25,-9.175 c0.87,0 1.705,0.405 2.25,1.045 C0.545,-8.77 1.38,-9.175 2.25,-9.175 C3.79,-9.175 5,-7.965 5,-6.425 c0,1.89 -1.7,3.43 -4.275,5.77 L0,0 Z" fill="#59d18f" stroke="#111111" stroke-width="2" stroke-linejoin="round" stroke-linecap="round" transform="translate(16,16) rotate(90)"/>
  <path d="M0,0 l-0.725,-0.66 C-3.3,-2.995 -5,-4.535 -5,-6.425 C-5,-7.965 -3.79,-9.175 -2.25,-9.175 c0.87,0 1.705,0.405 2.25,1.045 C0.545,-8.77 1.38,-9.175 2.25,-9.175 C3.79,-9.175 5,-7.965 5,-6.425 c0,1.89 -1.7,3.43 -4.275,5.77 L0,0 Z" fill="#59d18f" stroke="#111111" stroke-width="2" stroke-linejoin="round" stroke-linecap="round" transform="translate(16,16) rotate(180)"/>
  <path d="M0,0 l-0.725,-0.66 C-3.3,-2.995 -5,-4.535 -5,-6.425 C-5,-7.965 -3.79,-9.175 -2.25,-9.175 c0.87,0 1.705,0.405 2.25,1.045 C0.545,-8.77 1.38,-9.175 2.25,-9.175 C3.79,-9.175 5,-7.965 5,-6.425 c0,1.89 -1.7,3.43 -4.275,5.77 L0,0 Z" fill="#59d18f" stroke="#111111" stroke-width="2" stroke-linejoin="round" stroke-linecap="round" transform="translate(16,16) rotate(-90)"/>
</svg>
